# xmcd CD database file
#
# Track frame offsets:
#	183
#	17130
#	37505
#	54710
#	74683
#	95900
#	118748
#	134708
#	151433
#	167918
#
# Disc length: 2621 seconds
#
# Revision: 3
# Processed by: cddbd v1.4PL0 Copyright (c) Steve Scherf et al.
# Submitted via: CDex 1.50
#
DISCID=910a3b0a
DTITLE=Michel Jonasz - En Public Au Théâtre De La Ville
DYEAR=1978
DGENRE=Chanson
TTITLE0=Du blues du blues du blues
TTITLE1=Super nana
TTITLE2=Y'a toi y'a moi 
TTITLE3=Les vacances au bord de la mer
TTITLE4=J'suis dans l'coton
TTITLE5=Y'a rien qui dure toujours
TTITLE6=Les odeurs d'éther
TTITLE7=Les réussites
TTITLE8=Dites-moi
TTITLE9=J'veux pas qu'tu t'en ailles
EXTD=YEAR: 1978
EXTT0=
EXTT1=
EXTT2=
EXTT3=
EXTT4=
EXTT5=
EXTT6=
EXTT7=
EXTT8=
EXTT9=
PLAYORDER=
